<svg width="100" height="36" viewBox="0 0 100 36" fill="none" xmlns="http://www.w3.org/2000/svg">
<rect width="100" height="36" rx="17.5" fill="#181E4B"/>
<path d="M17.7893 24.6857C15.408 24.6715 13.4382 19.6717 13.4382 17.1253C13.4382 12.9659 16.4718 12.0553 17.641 12.0553C18.1678 12.0553 18.7304 12.2681 19.2266 12.4565C19.5736 12.5878 19.9325 12.7234 20.1321 12.7234C20.2516 12.7234 20.5331 12.6081 20.7817 12.5069C21.3118 12.2898 21.9714 12.02 22.7395 12.02C22.7409 12.02 22.7427 12.02 22.7441 12.02C23.3176 12.02 25.0567 12.1495 26.1022 13.7645L26.3471 14.143L25.9947 14.4166C25.4911 14.8074 24.5724 15.5202 24.5724 16.9323C24.5724 18.6047 25.6129 19.2479 26.1128 19.5573C26.3334 19.6938 26.5618 19.8346 26.5618 20.1425C26.5618 20.3436 25.0018 24.6607 22.7363 24.6607C22.182 24.6607 21.7901 24.4893 21.4445 24.3382C21.0948 24.1852 20.7931 24.0533 20.2946 24.0533C20.0419 24.0533 19.7224 24.1762 19.3841 24.3067C18.9218 24.4841 18.3985 24.6857 17.8048 24.6857H17.7893Z" fill="white"/>
<path d="M22.9795 8.22852C23.0385 10.4167 21.5171 11.9347 19.9975 11.8395C19.7471 10.0933 21.5169 8.22852 22.9795 8.22852Z" fill="white"/>
<path d="M35.03 13.3716H36.08L34.652 9.0516H33.428L32 13.3716H33.05L33.26 12.6927H34.82L35.03 13.3716ZM33.548 11.767L34.04 10.181L34.532 11.767H33.548Z" fill="white"/>
<path d="M38.2049 10.2859L37.5809 12.2422L36.9569 10.2859H35.9609L37.0709 13.3716H38.0909L39.2009 10.2859H38.2049Z" fill="white"/>
<path d="M41.592 10.2859V10.5759C41.394 10.3414 41.1 10.1995 40.698 10.1995C39.912 10.1995 39.264 10.9092 39.264 11.8287C39.264 12.7483 39.912 13.458 40.698 13.458C41.1 13.458 41.394 13.3161 41.592 13.0815V13.3716H42.492V10.2859H41.592ZM40.878 12.5817C40.464 12.5817 40.164 12.2916 40.164 11.8287C40.164 11.3659 40.464 11.0758 40.878 11.0758C41.292 11.0758 41.592 11.3659 41.592 11.8287C41.592 12.2916 41.292 12.5817 40.878 12.5817Z" fill="white"/>
<path d="M43.1523 13.3716H44.0523V8.86646H43.1523V13.3716Z" fill="white"/>
<path d="M45.1609 10.0143C45.4549 10.0143 45.7009 9.76131 45.7009 9.45891C45.7009 9.15651 45.4549 8.90348 45.1609 8.90348C44.8669 8.90348 44.6209 9.15651 44.6209 9.45891C44.6209 9.76131 44.8669 10.0143 45.1609 10.0143ZM44.7109 13.3716H45.6109V10.2859H44.7109V13.3716Z" fill="white"/>
<path d="M48.0635 10.1995C47.6615 10.1995 47.3675 10.3414 47.1695 10.5759V9.0516H46.2695V13.3716H47.1695V13.0815C47.3675 13.3161 47.6615 13.458 48.0635 13.458C48.8495 13.458 49.4975 12.7483 49.4975 11.8287C49.4975 10.9092 48.8495 10.1995 48.0635 10.1995ZM47.8835 12.5817C47.4695 12.5817 47.1695 12.2916 47.1695 11.8287C47.1695 11.3659 47.4695 11.0758 47.8835 11.0758C48.2975 11.0758 48.5975 11.3659 48.5975 11.8287C48.5975 12.2916 48.2975 12.5817 47.8835 12.5817Z" fill="white"/>
<path d="M50.0077 13.3716H50.9077V8.86646H50.0077V13.3716Z" fill="white"/>
<path d="M52.3703 12.199H54.5003C54.5243 12.0818 54.5363 11.9583 54.5363 11.8287C54.5363 10.8969 53.8883 10.1995 53.0123 10.1995C52.0643 10.1995 51.4163 10.9092 51.4163 11.8287C51.4163 12.7483 52.0523 13.458 53.0783 13.458C53.6483 13.458 54.0923 13.242 54.3863 12.8223L53.6663 12.3965C53.5463 12.5323 53.3363 12.631 53.0903 12.631C52.7603 12.631 52.4843 12.5199 52.3703 12.199ZM52.3523 11.5078C52.4363 11.1931 52.6643 11.0203 53.0063 11.0203C53.2763 11.0203 53.5463 11.1499 53.6423 11.5078H52.3523Z" fill="white"/>
<path d="M57.9868 13.458C58.8688 13.458 59.5768 12.7483 59.5768 11.8287C59.5768 10.9092 58.8688 10.1995 57.9868 10.1995C57.1048 10.1995 56.3968 10.9092 56.3968 11.8287C56.3968 12.7483 57.1048 13.458 57.9868 13.458ZM57.9868 12.557C57.5968 12.557 57.2968 12.2669 57.2968 11.8287C57.2968 11.3906 57.5968 11.1005 57.9868 11.1005C58.3768 11.1005 58.6768 11.3906 58.6768 11.8287C58.6768 12.2669 58.3768 12.557 57.9868 12.557Z" fill="white"/>
<path d="M61.8439 10.1995C61.4479 10.1995 61.1479 10.3476 60.9859 10.5759V10.2859H60.0859V13.3716H60.9859V11.6868C60.9859 11.2486 61.2139 11.0511 61.5439 11.0511C61.8319 11.0511 62.0659 11.2301 62.0659 11.6127V13.3716H62.9659V11.477C62.9659 10.6438 62.4499 10.1995 61.8439 10.1995Z" fill="white"/>
<path d="M66.8419 11.1746V10.2859H66.2239V9.42188L65.3239 9.6996V10.2859H64.8439V11.1746H65.3239V12.2669C65.3239 13.1309 65.6659 13.495 66.8419 13.3716V12.5323C66.4459 12.557 66.2239 12.5323 66.2239 12.2669V11.1746H66.8419Z" fill="white"/>
<path d="M69.1095 10.1995C68.7135 10.1995 68.4135 10.3476 68.2515 10.5759V9.0516H67.3515V13.3716H68.2515V11.6868C68.2515 11.2486 68.4795 11.0511 68.8095 11.0511C69.0975 11.0511 69.3315 11.2301 69.3315 11.6127V13.3716H70.2315V11.477C70.2315 10.6438 69.7155 10.1995 69.1095 10.1995Z" fill="white"/>
<path d="M71.6535 12.199H73.7835C73.8075 12.0818 73.8195 11.9583 73.8195 11.8287C73.8195 10.8969 73.1715 10.1995 72.2955 10.1995C71.3475 10.1995 70.6995 10.9092 70.6995 11.8287C70.6995 12.7483 71.3355 13.458 72.3615 13.458C72.9315 13.458 73.3755 13.242 73.6695 12.8223L72.9495 12.3965C72.8295 12.5323 72.6195 12.631 72.3735 12.631C72.0435 12.631 71.7675 12.5199 71.6535 12.199ZM71.6355 11.5078C71.7195 11.1931 71.9475 11.0203 72.2895 11.0203C72.5595 11.0203 72.8295 11.1499 72.9255 11.5078H71.6355Z" fill="white"/>
<path d="M37.05 24.6859H38.8L36.42 17.4859H34.38L32 24.6859H33.75L34.1 23.5545H36.7L37.05 24.6859ZM34.58 22.0116L35.4 19.3682L36.22 22.0116H34.58Z" fill="white"/>
<path d="M42.3369 19.399C41.6669 19.399 41.1769 19.6356 40.8469 20.0265V19.543H39.3469V26.743H40.8469V24.2025C41.1769 24.5933 41.6669 24.8299 42.3369 24.8299C43.6469 24.8299 44.7269 23.647 44.7269 22.1145C44.7269 20.5819 43.6469 19.399 42.3369 19.399ZM42.0369 23.3693C41.3469 23.3693 40.8469 22.8859 40.8469 22.1145C40.8469 21.343 41.3469 20.8596 42.0369 20.8596C42.7269 20.8596 43.2269 21.343 43.2269 22.1145C43.2269 22.8859 42.7269 23.3693 42.0369 23.3693Z" fill="white"/>
<path d="M48.5673 19.399C47.8973 19.399 47.4073 19.6356 47.0773 20.0265V19.543H45.5773V26.743H47.0773V24.2025C47.4073 24.5933 47.8973 24.8299 48.5673 24.8299C49.8773 24.8299 50.9573 23.647 50.9573 22.1145C50.9573 20.5819 49.8773 19.399 48.5673 19.399ZM48.2673 23.3693C47.5773 23.3693 47.0773 22.8859 47.0773 22.1145C47.0773 21.343 47.5773 20.8596 48.2673 20.8596C48.9573 20.8596 49.4573 21.343 49.4573 22.1145C49.4573 22.8859 48.9573 23.3693 48.2673 23.3693Z" fill="white"/>
<path d="M51.8078 24.6859H53.3078V17.1773H51.8078V24.6859Z" fill="white"/>
<path d="M55.7455 22.7316H59.2955C59.3355 22.5362 59.3555 22.3305 59.3555 22.1145C59.3555 20.5613 58.2755 19.399 56.8155 19.399C55.2355 19.399 54.1555 20.5819 54.1555 22.1145C54.1555 23.647 55.2155 24.8299 56.9255 24.8299C57.8755 24.8299 58.6155 24.4699 59.1055 23.7705L57.9055 23.0607C57.7055 23.287 57.3555 23.4516 56.9455 23.4516C56.3955 23.4516 55.9355 23.2665 55.7455 22.7316ZM55.7155 21.5796C55.8555 21.055 56.2355 20.767 56.8055 20.767C57.2555 20.767 57.7055 20.983 57.8655 21.5796H55.7155Z" fill="white"/>
<path d="M65.2062 24.8299C66.7262 24.8299 67.8063 24.007 67.8063 22.6185C67.8063 21.0962 66.6163 20.7156 65.5563 20.3865C64.4663 20.047 64.2962 19.8207 64.2962 19.4916C64.2962 19.2036 64.5462 18.9465 65.0462 18.9465C65.6862 18.9465 66.0162 19.2653 66.2562 19.7796L67.6063 18.967C67.0963 17.9076 66.1962 17.3419 65.0462 17.3419C63.8362 17.3419 62.6963 18.1442 62.6963 19.5327C62.6963 20.911 63.7162 21.4253 64.7562 21.7236C65.8062 22.0219 66.2062 22.1967 66.2062 22.639C66.2062 22.9167 66.0162 23.2253 65.2562 23.2253C64.4662 23.2253 64.0362 22.8242 63.7862 22.2276L62.4062 23.0505C62.7963 24.1099 63.7362 24.8299 65.2062 24.8299Z" fill="white"/>
<path d="M71.3394 21.0242V19.543H70.3094V18.103L68.8094 18.5659V19.543H68.0094V21.0242H68.8094V22.8447C68.8094 24.2847 69.3794 24.8916 71.3394 24.6859V23.287C70.6794 23.3282 70.3094 23.287 70.3094 22.8447V21.0242H71.3394Z" fill="white"/>
<path d="M74.491 24.8299C75.961 24.8299 77.141 23.647 77.141 22.1145C77.141 20.5819 75.961 19.399 74.491 19.399C73.021 19.399 71.841 20.5819 71.841 22.1145C71.841 23.647 73.021 24.8299 74.491 24.8299ZM74.491 23.3282C73.841 23.3282 73.341 22.8447 73.341 22.1145C73.341 21.3842 73.841 20.9007 74.491 20.9007C75.141 20.9007 75.641 21.3842 75.641 22.1145C75.641 22.8447 75.141 23.3282 74.491 23.3282Z" fill="white"/>
<path d="M79.4895 20.4585V19.543H77.9895V24.6859H79.4895V22.3613C79.4895 21.343 80.3695 21.0859 80.9895 21.1887V19.4402C80.3595 19.4402 79.6895 19.7693 79.4895 20.4585Z" fill="white"/>
<path d="M82.8841 22.7316H86.4341C86.4741 22.5362 86.4941 22.3305 86.4941 22.1145C86.4941 20.5613 85.4141 19.399 83.9541 19.399C82.3741 19.399 81.2941 20.5819 81.2941 22.1145C81.2941 23.647 82.3541 24.8299 84.0641 24.8299C85.0141 24.8299 85.7541 24.4699 86.2441 23.7705L85.0441 23.0607C84.8441 23.287 84.4941 23.4516 84.0841 23.4516C83.5341 23.4516 83.0741 23.2665 82.8841 22.7316ZM82.8541 21.5796C82.9941 21.055 83.3741 20.767 83.9441 20.767C84.3941 20.767 84.8441 20.983 85.0041 21.5796H82.8541Z" fill="white"/>
</svg>
