<svg width="100" height="36" viewBox="0 0 100 36" fill="none" xmlns="http://www.w3.org/2000/svg">
<rect width="100" height="36" rx="17.5" fill="#181E4B"/>
<g clip-path="url(#clip0_4_160)">
<path d="M24.6425 17.4873L15.256 27.4349C14.8164 27.1043 14.5554 26.5544 14.5601 25.9685V9.00623C14.5554 8.42032 14.8164 7.8704 15.256 7.53979L24.6425 17.4873Z" fill="#2196F3"/>
<path d="M27.9269 14.0128L24.6425 17.4875L15.256 7.53993C15.2913 7.50976 15.3282 7.4817 15.3663 7.45586C15.8624 7.12495 16.482 7.11427 16.9873 7.42784L27.9269 14.0128Z" fill="#4CAF50"/>
<path d="M31.9073 17.4876C31.9134 18.149 31.5868 18.76 31.0586 19.0755L27.9269 20.9622L24.6425 17.4876L27.9269 14.0129L31.0586 15.8997C31.5868 16.2152 31.9134 16.8261 31.9073 17.4876Z" fill="#F0BB1F"/>
<path d="M27.9269 20.9622L16.9873 27.5472C16.4809 27.8559 15.8636 27.8452 15.3663 27.5192C15.3282 27.4933 15.2913 27.4653 15.256 27.4351L24.6425 17.4875L27.9269 20.9622Z" fill="#F15A2B"/>
</g>
<path d="M42.8822 12.2195H40.2579V13.3715H41.656C41.4691 13.9228 41.013 14.2602 40.3177 14.2602C39.3009 14.2602 38.6728 13.5443 38.6728 12.5651C38.6728 11.553 39.3308 10.8371 40.213 10.8371C40.8037 10.8371 41.2747 11.1334 41.4915 11.5119L42.5083 10.87C42.0672 10.0966 41.2224 9.55347 40.2205 9.55347C38.6803 9.55347 37.4766 10.8865 37.4766 12.5569C37.4766 14.2108 38.6579 15.5439 40.3027 15.5439C41.7682 15.5439 42.8822 14.4742 42.8822 12.7132V12.2195Z" fill="white"/>
<path d="M44.379 14.1615V13.1411H46.2482V11.8904H44.379V10.9359H46.4351V9.66867H43.1828V15.4287H46.4725V14.1615H44.379Z" fill="white"/>
<path d="M50.2876 9.66867H46.3998V10.9359H47.7455V15.4287H48.9418V10.9359H50.2876V9.66867Z" fill="white"/>
<path d="M51.9328 9.66867V15.4287H53.129V9.66867H51.9328Z" fill="white"/>
<path d="M57.1684 9.66867H53.2806V10.9359H54.6264V15.4287H55.8226V10.9359H57.1684V9.66867Z" fill="white"/>
<path d="M61.3108 15.5439C62.8136 15.5439 64.0323 14.2438 64.0323 12.5487C64.0323 10.8536 62.8136 9.55347 61.3108 9.55347C59.808 9.55347 58.5893 10.8536 58.5893 12.5487C58.5893 14.2438 59.808 15.5439 61.3108 15.5439ZM61.3108 14.2602C60.4585 14.2602 59.7856 13.5772 59.7856 12.5487C59.7856 11.5201 60.4585 10.8371 61.3108 10.8371C62.1631 10.8371 62.836 11.5201 62.836 12.5487C62.836 13.5772 62.1631 14.2602 61.3108 14.2602Z" fill="white"/>
<path d="M67.2479 9.66867V12.7955L65.2292 9.66867H64.332V15.4287H65.5283V12.3018L67.5469 15.4287H68.4441V9.66867H67.2479Z" fill="white"/>
<path d="M42.8822 22.0033V22.2255C42.8822 22.9441 42.6504 23.5503 42.1868 24.044C41.7233 24.5322 41.1127 24.7763 40.3551 24.7763C39.5576 24.7763 38.8996 24.4911 38.3812 23.9206C37.8629 23.3446 37.6037 22.6396 37.6037 21.8058C37.6037 20.972 37.8604 20.2698 38.3738 19.6993C38.8872 19.1233 39.5376 18.8353 40.3252 18.8353C40.8037 18.8353 41.2423 18.9615 41.641 19.2138C42.0448 19.4662 42.3563 19.8035 42.5756 20.2259L42.2242 20.4563C42.0498 20.0943 41.7906 19.8035 41.4467 19.5841C41.1077 19.3647 40.7339 19.255 40.3252 19.255C39.6473 19.255 39.089 19.5018 38.6504 19.9955C38.2167 20.4838 37.9999 21.0872 37.9999 21.8058C37.9999 22.5244 38.2192 23.1306 38.6579 23.6243C39.0965 24.1126 39.6622 24.3567 40.3551 24.3567C40.9682 24.3567 41.4641 24.1729 41.8429 23.8054C42.2217 23.4378 42.4336 22.9743 42.4784 22.4147H40.2579V22.0033H42.8822Z" fill="white"/>
<path d="M48.1893 23.9123C47.6659 24.4883 47.0279 24.7763 46.2753 24.7763C45.5226 24.7763 44.8846 24.4883 44.3613 23.9123C43.8379 23.3308 43.5762 22.6287 43.5762 21.8058C43.5762 20.983 43.8379 20.2835 44.3613 19.7075C44.8846 19.126 45.5226 18.8353 46.2753 18.8353C47.0279 18.8353 47.6659 19.126 48.1893 19.7075C48.7127 20.2835 48.9743 20.983 48.9743 21.8058C48.9743 22.6287 48.7127 23.3308 48.1893 23.9123ZM44.6379 23.6161C45.0865 24.1098 45.6323 24.3567 46.2753 24.3567C46.9183 24.3567 47.4616 24.1098 47.9052 23.6161C48.3538 23.1169 48.5781 22.5135 48.5781 21.8058C48.5781 21.0982 48.3538 20.4975 47.9052 20.0038C47.4616 19.5046 46.9183 19.255 46.2753 19.255C45.6323 19.255 45.0865 19.5046 44.6379 20.0038C44.1943 20.4975 43.9725 21.0982 43.9725 21.8058C43.9725 22.5135 44.1943 23.1169 44.6379 23.6161Z" fill="white"/>
<path d="M54.2933 23.9123C53.7699 24.4883 53.1319 24.7763 52.3793 24.7763C51.6266 24.7763 50.9886 24.4883 50.4652 23.9123C49.9419 23.3308 49.6802 22.6287 49.6802 21.8058C49.6802 20.983 49.9419 20.2835 50.4652 19.7075C50.9886 19.126 51.6266 18.8353 52.3793 18.8353C53.1319 18.8353 53.7699 19.126 54.2933 19.7075C54.8166 20.2835 55.0783 20.983 55.0783 21.8058C55.0783 22.6287 54.8166 23.3308 54.2933 23.9123ZM50.7419 23.6161C51.1905 24.1098 51.7363 24.3567 52.3793 24.3567C53.0222 24.3567 53.5655 24.1098 54.0092 23.6161C54.4578 23.1169 54.6821 22.5135 54.6821 21.8058C54.6821 21.0982 54.4578 20.4975 54.0092 20.0038C53.5655 19.5046 53.0222 19.255 52.3793 19.255C51.7363 19.255 51.1905 19.5046 50.7419 20.0038C50.2983 20.4975 50.0764 21.0982 50.0764 21.8058C50.0764 22.5135 50.2983 23.1169 50.7419 23.6161Z" fill="white"/>
<path d="M61.0627 22.0033V22.2255C61.0627 22.9441 60.8309 23.5503 60.3673 24.044C59.9038 24.5322 59.2932 24.7763 58.5356 24.7763C57.7381 24.7763 57.0801 24.4911 56.5617 23.9206C56.0433 23.3446 55.7842 22.6396 55.7842 21.8058C55.7842 20.972 56.0409 20.2698 56.5542 19.6993C57.0676 19.1233 57.7181 18.8353 58.5057 18.8353C58.9842 18.8353 59.4228 18.9615 59.8215 19.2138C60.2253 19.4662 60.5368 19.8035 60.7561 20.2259L60.4047 20.4563C60.2303 20.0943 59.9711 19.8035 59.6271 19.5841C59.2882 19.3647 58.9144 19.255 58.5057 19.255C57.8278 19.255 57.2695 19.5018 56.8309 19.9955C56.3972 20.4838 56.1804 21.0872 56.1804 21.8058C56.1804 22.5244 56.3997 23.1306 56.8384 23.6243C57.277 24.1126 57.8427 24.3567 58.5356 24.3567C59.1486 24.3567 59.6446 24.1729 60.0234 23.8054C60.4022 23.4378 60.6141 22.9743 60.6589 22.4147H58.4384V22.0033H61.0627Z" fill="white"/>
<path d="M62.452 24.2744H64.9193V24.6858H62.0558V18.9258H62.452V24.2744Z" fill="white"/>
<path d="M66.1392 24.2744H68.7561V24.6858H65.743V18.9258H68.7187V19.3372H66.1392V21.5754H68.5318V21.9868H66.1392V24.2744Z" fill="white"/>
<path d="M73.5023 18.9258C73.9708 18.9258 74.3596 19.0959 74.6686 19.436C74.9777 19.7761 75.1322 20.2012 75.1322 20.7114C75.1322 21.2216 74.9777 21.6467 74.6686 21.9868C74.3596 22.3215 73.9708 22.4888 73.5023 22.4888H72.1191V24.6858H71.7228V18.9258H73.5023ZM73.5023 22.0774C73.8611 22.0774 74.1552 21.9484 74.3845 21.6906C74.6188 21.4328 74.7359 21.1064 74.7359 20.7114C74.7359 20.311 74.6188 19.9818 74.3845 19.724C74.1552 19.4662 73.8611 19.3372 73.5023 19.3372H72.1191V22.0774H73.5023Z" fill="white"/>
<path d="M76.5072 24.2744H78.9745V24.6858H76.111V18.9258H76.5072V24.2744Z" fill="white"/>
<path d="M83.4657 24.6858L82.9573 23.2211H80.333L79.8246 24.6858H79.4059L81.4395 18.9258H81.8582L83.8844 24.6858H83.4657ZM80.4825 22.8097H82.8152L81.6489 19.4607L80.4825 22.8097Z" fill="white"/>
<path d="M87.6082 18.9258L85.7017 22.316V24.6858H85.3054V22.316L83.3989 18.9258H83.8475L85.5073 21.8963L87.1596 18.9258H87.6082Z" fill="white"/>
<defs>
<clipPath id="clip0_4_160">
<rect width="18.6916" height="20.5714" fill="white" transform="translate(13.8879 7.19995)"/>
</clipPath>
</defs>
</svg>
